<svg xmlns="http://www.w3.org/2000/svg" viewBox="0 0 100 49.63"><defs>
<!-- <style>`.cls-1{fill:#f1f2f2;}.cls-2{fill:#bcbec0;}`</style> -->
</defs><g id="Layer_2" data-name="Layer 2"><g id="Layer_1-2" data-name="Layer 1"><path fill="green" d="M16.23,35.4c-3.44-1.72-5.82-1.56-7.54.57a5.06,5.06,0,0,0,.08,6.15c1.72,2.05,4.18,2.22,7.3.49.16.17.08.33.08.5v4.83c0,.41-.08.66-.49.82C10.08,51.14,1.72,48.68.33,40.65a10.84,10.84,0,0,1,9.51-12.3,10.68,10.68,0,0,1,5.73.74c.5.16.66.41.66,1Z"/><path fill="green" d="M24.43,16.55V48.11c0,.57-.09.82-.74.73-1.72-.08-3.44,0-5.17,0-.49,0-.65-.08-.65-.57V23.68a.72.72,0,0,1,.49-.74,13.7,13.7,0,0,0,4-2.87A7,7,0,0,0,24.43,16.55Z"/><path fill="black" d="M23.28,9.42A10.12,10.12,0,0,0,16.07.48c-3.28-.9-6.4-.57-8.77,2.13H7.13V1.3C7.21.81,7.05.65,6.48.65H0V30.89a11.52,11.52,0,0,1,6.72-4.83c.41-.09.33-.33.33-.58V18.84A8.75,8.75,0,0,0,9.18,20.4,9.81,9.81,0,0,0,21,17.7,10.79,10.79,0,0,0,23.28,9.42ZM11.39,15.24a4.51,4.51,0,0,1-4.5-4.59,4.41,4.41,0,0,1,4.59-4.51,4.37,4.37,0,0,1,4.42,4.51A4.47,4.47,0,0,1,11.39,15.24Z"/><path fill="green" d="M74.34,28.27V23.93a1.05,1.05,0,0,0-.82-.25H68.2a1.15,1.15,0,0,0-.9.25V40.24c-.09,2.21-1.48,3.44-3.78,3.36a3.68,3.68,0,0,1-3.36-3.69V23.84h0a1.53,1.53,0,0,0-.57-.16H53.85a.9.9,0,0,0-.74.33V41.88a6.8,6.8,0,0,0,4.35,6.47,20.18,20.18,0,0,0,3.11.9,20.82,20.82,0,0,0,5.17.25,14.59,14.59,0,0,0,3.36-.82c3.85-1.48,5.33-3.77,5.24-8S74.26,32.45,74.34,28.27Z"/><path fill="black" d="M74.34,7.29a7.29,7.29,0,0,0-1.23-4.1A6.76,6.76,0,0,0,67.7.32c-2.78-.25-5.4.24-7.29,2.54-.08.08-.16.16-.25.08V1.22c0-.41-.16-.57-.57-.57h-6c-.41,0-.58.08-.58.57V24c.25,0,.58-.08.82-.08h6.23V9.66a3.74,3.74,0,0,1,4.67-3.77A2.58,2.58,0,0,1,67,8.43a16.51,16.51,0,0,1,.16,2V24h0c.25,0,.57-.08.82-.08h6.23v-.25C74.34,18.27,74.34,12.78,74.34,7.29Z"/><path fill="green" d="M99.92,23.52c0-.5-.17-.66-.66-.66H93.52c-.65,0-.82.16-.82.82v7.13a2.1,2.1,0,0,1-.4-.33,8.39,8.39,0,0,0-7.87-2A9.93,9.93,0,0,0,76.56,37c-.58,4.34.49,8,4.18,10.74s9.42,2.37,11.72-.74h.16v1.39c0,.41.17.58.58.58h5.9c.49,0,.65-.17.65-.66C99.92,40.07,99.92,31.79,99.92,23.52Zm-11.48,20a4.52,4.52,0,0,1-4.51-4.59,4.42,4.42,0,0,1,4.68-4.43A4.49,4.49,0,0,1,93,39.09,4.44,4.44,0,0,1,88.44,43.52Z"/><path fill="black" d="M49.84,1.71V1.06c0-.33-.09-.41-.41-.41H43.11c-.32,0-.41.08-.41.41V2.61A7.13,7.13,0,0,0,40.16.81,10,10,0,0,0,29,3.43a10.93,10.93,0,0,0-2.38,9.68A10.14,10.14,0,0,0,38,21.22a7,7,0,0,0,4.67-2.7v2.21c0,.49.17.57.58.57H49.1c.57,0,.65-.16.65-.65C49.84,14.34,49.84,8,49.84,1.71ZM38.36,15.24a4.47,4.47,0,1,1,0-8.94A4.55,4.55,0,0,1,43,10.73,4.57,4.57,0,0,1,38.36,15.24Z"/><path fill="black" d="M99.92,1.22c0-.33-.08-.57-.49-.57H93.28c-.33,0-.49.08-.49.49V2.53a8.83,8.83,0,0,1-.9-.82,9.4,9.4,0,0,0-10.58-.16A10.28,10.28,0,0,0,76.56,11,10.08,10.08,0,0,0,85.9,21.22a7.53,7.53,0,0,0,6.64-2.38c.08-.08.08-.16.33-.08v1.31c0,.41.08.58.57.58h6.07c.41,0,.49-.09.49-.5C99.92,13.93,99.92,7.53,99.92,1.22Zm-11.56,14a4.51,4.51,0,1,1,.33-9A4.43,4.43,0,0,1,93,10.89,4.34,4.34,0,0,1,88.36,15.24Z"/><path fill="green" d="M44.84,28.43C42.38,27,39.75,27,37,27.2c-8.12.74-12.63,8.86-9.1,16.32a10.71,10.71,0,0,0,5.82,5.24,19.09,19.09,0,0,0,6.15.82,9.14,9.14,0,0,0,3.68-.74,10.64,10.64,0,0,0,7.3-9.59A10.82,10.82,0,0,0,44.84,28.43ZM38.77,43.19a4.84,4.84,0,0,1-4.67-4.92,4.64,4.64,0,1,1,9.26.08A4.69,4.69,0,0,1,38.77,43.19Z"/></g></g></svg>