<?xml version="1.0" encoding="utf-8"?>
<!-- Generator: Adobe Illustrator 25.0.1, SVG Export Plug-In . SVG Version: 6.00 Build 0)  -->
<svg version="1.1" id="Layer_1" xmlns="http://www.w3.org/2000/svg" xmlns:xlink="http://www.w3.org/1999/xlink" x="0px" y="0px"
	 viewBox="0 0 640 512" style="enable-background:new 0 0 640 512;" xml:space="preserve">
<style type="text/css">
	.st0{fill:none;}
	.st1{fill:#5e5e5e;}
</style>
<g>
	<path class="st0" d="M381.3,244.4c-3.1-1.8-8.7-2.7-16.8-2.7h-7.4v28.5h8.3c6.5,0,11.1-0.5,13.7-1.4c2.6-1,4.6-2.5,6.1-4.6
		c1.4-2.1,2.1-4.8,2.3-8C387.5,250.7,385.5,246.9,381.3,244.4z"/>
	<polygon class="st0" points="225.4,300.2 262.4,300.2 243.9,252.7 	"/>
	<path class="st0" d="M590.4,314.3c0-45.5-27.3-85.6-69.5-102.2c0,0-5.7-2.3-5.7-2.3c-5.5-2.2-9.2-7.4-9.5-13.2l-0.4-6.1
		c-1.7-26.4-13-51.3-31.9-70.2c-20.7-20.7-48.2-32.1-77.6-32.1c-33.1,0-64,14.7-84.9,40.2c0,0-5.2,6.3-5.2,6.3
		c-3,3.6-7.3,5.5-11.8,5.5c-2.6,0-5.2-0.7-7.6-2l-7-4c-16.7-9.6-35.7-14.6-54.9-14.6c-50.3,0-94,34-106.3,82.8l-0.9,3.9
		c-1,4.1-3.6,7.7-7.3,9.8c0,0-3.8,2.1-3.8,2.2c-8.8,4.8-17.1,11-24.6,18.4c-20.7,20.7-32.1,48.2-32.1,77.6
		c0,38.3,20.5,74.4,53.4,94.2c16.9,10.1,36.3,15.4,56.2,15.4h321.7c13.9,0,27.4-2.6,40.3-7.7c14-5.5,26.5-13.7,37.2-24.5
		C579.1,370.9,590.5,343.4,590.4,314.3z M283,354.5l-10.8-28.6h-56.4l-11.3,28.6H177l53.3-138.5h26.8l53.2,138.5H283z M405.2,280.5
		c-5.1,6.3-11.9,10.8-20.6,13.3c-5.1,1.4-14.3,2.1-27.7,2.1v58.6h-26.3V216.1h28c15.1,0,26.1,1.4,32.7,4.2
		c6.7,2.7,11.9,7.3,15.7,13.7c3.9,6.3,5.8,13.8,5.8,22.5C412.9,266.1,410.2,274,405.2,280.5z M463,354.5h-26.2V216.1H463V354.5z"/>
	<path class="st1" d="M614.3,227c-15.2-23.4-36.3-42.2-61.2-54.9c-5.3-32.7-20.9-63.3-44.5-86.9c-30.1-30.1-70-46.6-112.6-46.6
		c-40.8,0-80.1,15.8-109.6,43.7C266.9,74.3,245.8,70,224.8,70c-35.1,0-68.4,11.2-96.2,32.3c-26.2,19.8-45.2,46.7-55.2,77.8
		c-9.5,6.1-18.4,13.3-26.6,21.3c0,0,0,0-0.1,0.1C16.6,231.6,0,271.6,0,314.2c0,55.7,29.7,108.1,77.5,136.6
		c24.5,14.7,52.7,22.5,81.7,22.5h321.7c20,0,39.8-3.8,58.6-11.2c20.1-7.9,38.3-19.8,54-35.4c30.1-30.1,46.6-70,46.6-112.4
		C640,283,631.1,252.9,614.3,227z M480.8,423.8H159.2c-19.9,0-39.3-5.3-56.2-15.4c-33-19.8-53.4-55.9-53.4-94.2
		c0-29.3,11.4-56.9,32.1-77.6c7.5-7.5,15.7-13.7,24.6-18.4c0.1,0,3.8-2.2,3.8-2.2c3.7-2.1,6.3-5.6,7.3-9.8l0.9-3.9
		c12.3-48.7,55.9-82.8,106.3-82.8c19.2,0,38.2,5.1,54.9,14.6l7,4c2.4,1.4,5,2,7.6,2c4.4,0,8.8-1.9,11.8-5.5c0,0,5.2-6.2,5.2-6.3
		c20.9-25.6,51.8-40.2,84.9-40.2c29.3,0,56.9,11.4,77.6,32.1c18.9,18.9,30.2,43.9,31.9,70.2l0.4,6.1c0.3,5.9,4,11,9.5,13.2
		c0,0,5.7,2.3,5.7,2.3c42.2,16.6,69.5,56.7,69.5,102.2c0.1,29.1-11.2,56.5-32,77.3c-10.8,10.8-23.3,19-37.2,24.5
		C508.3,421.2,494.7,423.8,480.8,423.8z"/>
	<path class="st1" d="M230.4,216.1L177,354.5h27.4l11.3-28.6h56.4l10.8,28.6h27.4l-53.2-138.5H230.4z M225.4,300.2l18.6-47.5
		l18.5,47.5H225.4z"/>
	<path class="st1" d="M391.3,220.2c-6.7-2.7-17.6-4.2-32.7-4.2h-28v138.5h26.3v-58.6c13.5,0,22.6-0.7,27.7-2.1
		c8.7-2.5,15.5-7,20.6-13.3c5-6.4,7.6-14.4,7.6-24c0-8.7-1.9-16.2-5.8-22.5C403.2,227.5,398,223,391.3,220.2z M385.2,264
		c-1.4,2.1-3.5,3.7-6.1,4.6c-2.6,1-7.1,1.4-13.7,1.4h-8.3v-28.5h7.4c8.1,0,13.7,1,16.8,2.7c4.2,2.5,6.2,6.3,6.2,11.7
		C387.4,259.3,386.7,261.9,385.2,264z"/>
	<rect x="436.8" y="216.1" class="st1" width="26.2" height="138.5"/>
</g>
</svg>
