<svg xmlns="http://www.w3.org/2000/svg" viewBox="0 0 100 49.63"><g data-name="Layer 2"><g data-name="Layer 1"><path fill="green" d="M16.23 35.4c-3.44-1.72-5.82-1.56-7.54.57a5.06 5.06 0 0 0 .08 6.15c1.72 2.05 4.18 2.22 7.3.49.16.17.08.33.08.5v4.83c0 .41-.08.66-.49.82-5.58 2.38-13.94-.08-15.33-8.11a10.84 10.84 0 0 1 9.51-12.3 10.68 10.68 0 0 1 5.73.74c.5.16.66.41.66 1Zm8.2-18.85v31.56c0 .57-.09.82-.74.73-1.72-.08-3.44 0-5.17 0-.49 0-.65-.08-.65-.57V23.68a.72.72 0 0 1 .49-.74 13.7 13.7 0 0 0 4-2.87 7 7 0 0 0 2.07-3.52Z"/><path d="M23.28 9.42A10.12 10.12 0 0 0 16.07.48c-3.28-.9-6.4-.57-8.77 2.13h-.17V1.3c.08-.49-.08-.65-.65-.65H0v30.24a11.52 11.52 0 0 1 6.72-4.83c.41-.09.33-.33.33-.58v-6.64a8.75 8.75 0 0 0 2.13 1.56A9.81 9.81 0 0 0 21 17.7a10.79 10.79 0 0 0 2.28-8.28Zm-11.89 5.82a4.51 4.51 0 0 1-4.5-4.59 4.41 4.41 0 0 1 4.59-4.51 4.37 4.37 0 0 1 4.42 4.51 4.47 4.47 0 0 1-4.51 4.59Z"/><path fill="green" d="M74.34 28.27v-4.34a1.05 1.05 0 0 0-.82-.25H68.2a1.15 1.15 0 0 0-.9.25v16.31c-.09 2.21-1.48 3.44-3.78 3.36a3.68 3.68 0 0 1-3.36-3.69V23.84a1.53 1.53 0 0 0-.57-.16h-5.74a.9.9 0 0 0-.74.33v17.87a6.8 6.8 0 0 0 4.35 6.47 20.18 20.18 0 0 0 3.11.9 20.82 20.82 0 0 0 5.17.25 14.59 14.59 0 0 0 3.36-.82c3.85-1.48 5.33-3.77 5.24-8s-.08-8.23 0-12.41Z"/><path d="M74.34 7.29a7.29 7.29 0 0 0-1.23-4.1A6.76 6.76 0 0 0 67.7.32c-2.78-.25-5.4.24-7.29 2.54-.08.08-.16.16-.25.08V1.22c0-.41-.16-.57-.57-.57h-6c-.41 0-.58.08-.58.57V24c.25 0 .58-.08.82-.08h6.23V9.66a3.74 3.74 0 0 1 4.67-3.77A2.58 2.58 0 0 1 67 8.43a16.51 16.51 0 0 1 .16 2V24c.25 0 .57-.08.82-.08h6.23v-.25c.13-5.4.13-10.89.13-16.38Z"/><path fill="green" d="M99.92 23.52c0-.5-.17-.66-.66-.66h-5.74c-.65 0-.82.16-.82.82v7.13a2.1 2.1 0 0 1-.4-.33 8.39 8.39 0 0 0-7.87-2A9.93 9.93 0 0 0 76.56 37c-.58 4.34.49 8 4.18 10.74s9.42 2.37 11.72-.74h.16v1.39c0 .41.17.58.58.58h5.9c.49 0 .65-.17.65-.66.17-8.24.17-16.52.17-24.79Zm-11.48 20a4.52 4.52 0 0 1-4.51-4.59 4.42 4.42 0 0 1 4.68-4.43A4.49 4.49 0 0 1 93 39.09a4.44 4.44 0 0 1-4.56 4.43Z"/><path d="M49.84 1.71v-.65c0-.33-.09-.41-.41-.41h-6.32c-.32 0-.41.08-.41.41v1.55a7.13 7.13 0 0 0-2.54-1.8A10 10 0 0 0 29 3.43a10.93 10.93 0 0 0-2.38 9.68A10.14 10.14 0 0 0 38 21.22a7 7 0 0 0 4.67-2.7v2.21c0 .49.17.57.58.57h5.85c.57 0 .65-.16.65-.65.09-6.31.09-12.65.09-18.94ZM38.36 15.24a4.47 4.47 0 1 1 0-8.94A4.55 4.55 0 0 1 43 10.73a4.57 4.57 0 0 1-4.64 4.51ZM99.92 1.22c0-.33-.08-.57-.49-.57h-6.15c-.33 0-.49.08-.49.49v1.39a8.83 8.83 0 0 1-.9-.82 9.4 9.4 0 0 0-10.58-.16A10.28 10.28 0 0 0 76.56 11a10.08 10.08 0 0 0 9.34 10.22 7.53 7.53 0 0 0 6.64-2.38c.08-.08.08-.16.33-.08v1.31c0 .41.08.58.57.58h6.07c.41 0 .49-.09.49-.5-.08-6.22-.08-12.62-.08-18.93Zm-11.56 14a4.51 4.51 0 1 1 .33-9A4.43 4.43 0 0 1 93 10.89a4.34 4.34 0 0 1-4.64 4.35Z"/><path fill="green" d="M44.84 28.43C42.38 27 39.75 27 37 27.2c-8.12.74-12.63 8.86-9.1 16.32a10.71 10.71 0 0 0 5.82 5.24 19.09 19.09 0 0 0 6.15.82 9.14 9.14 0 0 0 3.68-.74 10.64 10.64 0 0 0 7.3-9.59 10.82 10.82 0 0 0-6.01-10.82Zm-6.07 14.76a4.84 4.84 0 0 1-4.67-4.92 4.64 4.64 0 1 1 9.26.08 4.69 4.69 0 0 1-4.59 4.84Z"/></g></g></svg>